<mxfile host="app.diagrams.net" modified="2024-03-07T18:18:15.731Z" agent="Mozilla/5.0 (X11; Ubuntu; Linux x86_64; rv:123.0) Gecko/20100101 Firefox/123.0" etag="a0AGNeHoGPrEbX6AIFTJ" version="24.0.1" type="device">
  <diagram name="Page-1" id="z6MlrTnO1uHHdYoNLohP">
    <mxGraphModel dx="2280" dy="777" grid="1" gridSize="10" guides="1" tooltips="1" connect="1" arrows="1" fold="1" page="1" pageScale="1" pageWidth="850" pageHeight="1100" math="0" shadow="0">
      <root>
        <mxCell id="0" />
        <mxCell id="1" parent="0" />
        <mxCell id="5XbrsSFNruDuMF39BsKj-1" value="AWS Cloud" style="points=[[0,0],[0.25,0],[0.5,0],[0.75,0],[1,0],[1,0.25],[1,0.5],[1,0.75],[1,1],[0.75,1],[0.5,1],[0.25,1],[0,1],[0,0.75],[0,0.5],[0,0.25]];outlineConnect=0;gradientColor=none;html=1;whiteSpace=wrap;fontSize=12;fontStyle=0;container=0;pointerEvents=0;collapsible=0;recursiveResize=0;shape=mxgraph.aws4.group;grIcon=mxgraph.aws4.group_aws_cloud_alt;strokeColor=#232F3E;fillColor=none;verticalAlign=top;align=left;spacingLeft=30;fontColor=#232F3E;dashed=0;" parent="1" vertex="1">
          <mxGeometry x="-540" y="240" width="760" height="460" as="geometry" />
        </mxCell>
        <mxCell id="XfG0hNDh4FnXGRDmEdeQ-2" value="" style="group" vertex="1" connectable="0" parent="1">
          <mxGeometry x="-480" y="280" width="110" height="120" as="geometry" />
        </mxCell>
        <mxCell id="7VSfqjxM2VctQeidwvQ3-10" value="Cloudwatch" style="text;html=1;align=center;verticalAlign=middle;whiteSpace=wrap;rounded=0;fontSize=20;container=0;" parent="XfG0hNDh4FnXGRDmEdeQ-2" vertex="1">
          <mxGeometry y="90" width="110" height="30" as="geometry" />
        </mxCell>
        <mxCell id="waU-er1XK3HUR5QqYbRZ-3" value="" style="sketch=0;points=[[0,0,0],[0.25,0,0],[0.5,0,0],[0.75,0,0],[1,0,0],[0,1,0],[0.25,1,0],[0.5,1,0],[0.75,1,0],[1,1,0],[0,0.25,0],[0,0.5,0],[0,0.75,0],[1,0.25,0],[1,0.5,0],[1,0.75,0]];points=[[0,0,0],[0.25,0,0],[0.5,0,0],[0.75,0,0],[1,0,0],[0,1,0],[0.25,1,0],[0.5,1,0],[0.75,1,0],[1,1,0],[0,0.25,0],[0,0.5,0],[0,0.75,0],[1,0.25,0],[1,0.5,0],[1,0.75,0]];outlineConnect=0;fontColor=#232F3E;fillColor=#E7157B;strokeColor=#ffffff;dashed=0;verticalLabelPosition=bottom;verticalAlign=top;align=center;html=1;fontSize=12;fontStyle=0;aspect=fixed;shape=mxgraph.aws4.resourceIcon;resIcon=mxgraph.aws4.cloudwatch_2;container=0;" parent="XfG0hNDh4FnXGRDmEdeQ-2" vertex="1">
          <mxGeometry x="16" width="78" height="78" as="geometry" />
        </mxCell>
        <mxCell id="7VSfqjxM2VctQeidwvQ3-9" value="Lambda" style="text;html=1;align=center;verticalAlign=middle;whiteSpace=wrap;rounded=0;fontSize=20;container=0;" parent="1" vertex="1">
          <mxGeometry x="-260" y="640" width="110" height="30" as="geometry" />
        </mxCell>
        <mxCell id="waU-er1XK3HUR5QqYbRZ-2" value="" style="sketch=0;points=[[0,0,0],[0.25,0,0],[0.5,0,0],[0.75,0,0],[1,0,0],[0,1,0],[0.25,1,0],[0.5,1,0],[0.75,1,0],[1,1,0],[0,0.25,0],[0,0.5,0],[0,0.75,0],[1,0.25,0],[1,0.5,0],[1,0.75,0]];outlineConnect=0;fontColor=#232F3E;fillColor=#ED7100;strokeColor=#ffffff;dashed=0;verticalLabelPosition=bottom;verticalAlign=top;align=center;html=1;fontSize=12;fontStyle=0;aspect=fixed;shape=mxgraph.aws4.resourceIcon;resIcon=mxgraph.aws4.lambda;container=0;" parent="1" vertex="1">
          <mxGeometry x="-244" y="550" width="78" height="78" as="geometry" />
        </mxCell>
        <mxCell id="XfG0hNDh4FnXGRDmEdeQ-7" value="Lambda" style="text;html=1;align=center;verticalAlign=middle;whiteSpace=wrap;rounded=0;fontSize=20;container=0;" vertex="1" parent="1">
          <mxGeometry x="-90" y="640" width="110" height="30" as="geometry" />
        </mxCell>
        <mxCell id="XfG0hNDh4FnXGRDmEdeQ-8" value="" style="sketch=0;points=[[0,0,0],[0.25,0,0],[0.5,0,0],[0.75,0,0],[1,0,0],[0,1,0],[0.25,1,0],[0.5,1,0],[0.75,1,0],[1,1,0],[0,0.25,0],[0,0.5,0],[0,0.75,0],[1,0.25,0],[1,0.5,0],[1,0.75,0]];outlineConnect=0;fontColor=#232F3E;fillColor=#ED7100;strokeColor=#ffffff;dashed=0;verticalLabelPosition=bottom;verticalAlign=top;align=center;html=1;fontSize=12;fontStyle=0;aspect=fixed;shape=mxgraph.aws4.resourceIcon;resIcon=mxgraph.aws4.lambda;container=0;" vertex="1" parent="1">
          <mxGeometry x="-74" y="550" width="78" height="78" as="geometry" />
        </mxCell>
        <mxCell id="XfG0hNDh4FnXGRDmEdeQ-10" value="Lambda" style="text;html=1;align=center;verticalAlign=middle;whiteSpace=wrap;rounded=0;fontSize=20;container=0;" vertex="1" parent="1">
          <mxGeometry x="-430" y="640" width="110" height="30" as="geometry" />
        </mxCell>
        <mxCell id="XfG0hNDh4FnXGRDmEdeQ-11" value="" style="sketch=0;points=[[0,0,0],[0.25,0,0],[0.5,0,0],[0.75,0,0],[1,0,0],[0,1,0],[0.25,1,0],[0.5,1,0],[0.75,1,0],[1,1,0],[0,0.25,0],[0,0.5,0],[0,0.75,0],[1,0.25,0],[1,0.5,0],[1,0.75,0]];outlineConnect=0;fontColor=#232F3E;fillColor=#ED7100;strokeColor=#ffffff;dashed=0;verticalLabelPosition=bottom;verticalAlign=top;align=center;html=1;fontSize=12;fontStyle=0;aspect=fixed;shape=mxgraph.aws4.resourceIcon;resIcon=mxgraph.aws4.lambda;container=0;" vertex="1" parent="1">
          <mxGeometry x="-414" y="550" width="78" height="78" as="geometry" />
        </mxCell>
        <mxCell id="XfG0hNDh4FnXGRDmEdeQ-33" style="edgeStyle=orthogonalEdgeStyle;rounded=0;orthogonalLoop=1;jettySize=auto;html=1;" edge="1" parent="1">
          <mxGeometry relative="1" as="geometry">
            <mxPoint x="-170" y="318.66" as="sourcePoint" />
            <mxPoint x="-380" y="318.66" as="targetPoint" />
          </mxGeometry>
        </mxCell>
        <mxCell id="XfG0hNDh4FnXGRDmEdeQ-3" value="" style="sketch=0;points=[[0,0,0],[0.25,0,0],[0.5,0,0],[0.75,0,0],[1,0,0],[0,1,0],[0.25,1,0],[0.5,1,0],[0.75,1,0],[1,1,0],[0,0.25,0],[0,0.5,0],[0,0.75,0],[1,0.25,0],[1,0.5,0],[1,0.75,0]];outlineConnect=0;fontColor=#232F3E;fillColor=#8C4FFF;strokeColor=#ffffff;dashed=0;verticalLabelPosition=bottom;verticalAlign=top;align=center;html=1;fontSize=12;fontStyle=0;aspect=fixed;shape=mxgraph.aws4.resourceIcon;resIcon=mxgraph.aws4.api_gateway;container=0;" vertex="1" parent="1">
          <mxGeometry x="-159" y="280" width="78" height="78" as="geometry" />
        </mxCell>
        <mxCell id="XfG0hNDh4FnXGRDmEdeQ-15" style="edgeStyle=orthogonalEdgeStyle;rounded=0;orthogonalLoop=1;jettySize=auto;html=1;" edge="1" parent="1" source="XfG0hNDh4FnXGRDmEdeQ-4">
          <mxGeometry relative="1" as="geometry">
            <mxPoint x="-205" y="540" as="targetPoint" />
            <Array as="points">
              <mxPoint x="-130" y="475" />
              <mxPoint x="-205" y="475" />
            </Array>
          </mxGeometry>
        </mxCell>
        <mxCell id="XfG0hNDh4FnXGRDmEdeQ-16" style="edgeStyle=orthogonalEdgeStyle;rounded=0;orthogonalLoop=1;jettySize=auto;html=1;" edge="1" parent="1" source="XfG0hNDh4FnXGRDmEdeQ-4">
          <mxGeometry relative="1" as="geometry">
            <mxPoint x="-35" y="540" as="targetPoint" />
            <Array as="points">
              <mxPoint x="-110" y="475" />
              <mxPoint x="-35" y="475" />
            </Array>
          </mxGeometry>
        </mxCell>
        <mxCell id="XfG0hNDh4FnXGRDmEdeQ-17" style="edgeStyle=orthogonalEdgeStyle;rounded=0;orthogonalLoop=1;jettySize=auto;html=1;" edge="1" parent="1" source="XfG0hNDh4FnXGRDmEdeQ-4">
          <mxGeometry relative="1" as="geometry">
            <mxPoint x="-375" y="540" as="targetPoint" />
            <Array as="points">
              <mxPoint x="-150" y="440" />
              <mxPoint x="-375" y="440" />
            </Array>
          </mxGeometry>
        </mxCell>
        <mxCell id="XfG0hNDh4FnXGRDmEdeQ-20" style="edgeStyle=orthogonalEdgeStyle;rounded=0;orthogonalLoop=1;jettySize=auto;html=1;" edge="1" parent="1" source="XfG0hNDh4FnXGRDmEdeQ-4">
          <mxGeometry relative="1" as="geometry">
            <mxPoint x="135" y="540" as="targetPoint" />
            <Array as="points">
              <mxPoint x="-90" y="440" />
              <mxPoint x="135" y="440" />
            </Array>
          </mxGeometry>
        </mxCell>
        <mxCell id="XfG0hNDh4FnXGRDmEdeQ-4" value="API Gateway" style="text;html=1;align=center;verticalAlign=middle;whiteSpace=wrap;rounded=0;fontSize=20;container=0;" vertex="1" parent="1">
          <mxGeometry x="-180" y="370" width="120" height="30" as="geometry" />
        </mxCell>
        <mxCell id="XfG0hNDh4FnXGRDmEdeQ-25" value="" style="group" vertex="1" connectable="0" parent="1">
          <mxGeometry x="100" y="590" width="70" height="10" as="geometry" />
        </mxCell>
        <mxCell id="XfG0hNDh4FnXGRDmEdeQ-22" value="" style="shape=waypoint;sketch=0;fillStyle=solid;size=6;pointerEvents=1;points=[];fillColor=none;resizable=0;rotatable=0;perimeter=centerPerimeter;snapToPoint=1;" vertex="1" parent="XfG0hNDh4FnXGRDmEdeQ-25">
          <mxGeometry width="10" height="10" as="geometry" />
        </mxCell>
        <mxCell id="XfG0hNDh4FnXGRDmEdeQ-23" value="" style="shape=waypoint;sketch=0;fillStyle=solid;size=6;pointerEvents=1;points=[];fillColor=none;resizable=0;rotatable=0;perimeter=centerPerimeter;snapToPoint=1;" vertex="1" parent="XfG0hNDh4FnXGRDmEdeQ-25">
          <mxGeometry x="30" width="10" height="10" as="geometry" />
        </mxCell>
        <mxCell id="XfG0hNDh4FnXGRDmEdeQ-24" value="" style="shape=waypoint;sketch=0;fillStyle=solid;size=6;pointerEvents=1;points=[];fillColor=none;resizable=0;rotatable=0;perimeter=centerPerimeter;snapToPoint=1;" vertex="1" parent="XfG0hNDh4FnXGRDmEdeQ-25">
          <mxGeometry x="60" width="10" height="10" as="geometry" />
        </mxCell>
        <mxCell id="XfG0hNDh4FnXGRDmEdeQ-27" value="POST /foo" style="text;html=1;align=center;verticalAlign=middle;whiteSpace=wrap;rounded=0;" vertex="1" parent="1">
          <mxGeometry x="-280" y="495" width="60" height="30" as="geometry" />
        </mxCell>
        <mxCell id="XfG0hNDh4FnXGRDmEdeQ-31" value="GET /foo" style="text;html=1;align=center;verticalAlign=middle;whiteSpace=wrap;rounded=0;" vertex="1" parent="1">
          <mxGeometry x="-450" y="495" width="60" height="30" as="geometry" />
        </mxCell>
        <mxCell id="XfG0hNDh4FnXGRDmEdeQ-32" value="GET /bar" style="text;html=1;align=center;verticalAlign=middle;whiteSpace=wrap;rounded=0;" vertex="1" parent="1">
          <mxGeometry x="-100" y="495" width="60" height="30" as="geometry" />
        </mxCell>
        <mxCell id="XfG0hNDh4FnXGRDmEdeQ-34" value="Puts log event of every invocation" style="text;html=1;align=center;verticalAlign=middle;whiteSpace=wrap;rounded=0;" vertex="1" parent="1">
          <mxGeometry x="-330" y="280" width="110" height="30" as="geometry" />
        </mxCell>
      </root>
    </mxGraphModel>
  </diagram>
</mxfile>
